<mxfile host="app.diagrams.net" modified="2020-11-04T13:27:04.626Z" agent="5.0 (Windows NT 10.0; Win64; x64) AppleWebKit/537.36 (KHTML, like Gecko) Chrome/86.0.4240.111 Safari/537.36" etag="7sHV2ZD1ugowNI0llylx" version="13.8.9-1" type="github">
  <diagram id="nH_de2U-jFfcsGRk_HyX" name="Page-1">
    <mxGraphModel dx="2398" dy="1882" grid="1" gridSize="10" guides="1" tooltips="1" connect="1" arrows="1" fold="1" page="1" pageScale="1" pageWidth="827" pageHeight="1169" math="0" shadow="0">
      <root>
        <mxCell id="0" />
        <mxCell id="1" parent="0" />
        <mxCell id="6ftEPY7mpiSn2tfnwOEc-1" style="edgeStyle=orthogonalEdgeStyle;rounded=0;orthogonalLoop=1;jettySize=auto;html=1;exitX=0;exitY=0.25;exitDx=0;exitDy=0;entryX=0.996;entryY=0.119;entryDx=0;entryDy=0;entryPerimeter=0;" edge="1" parent="1" source="6ftEPY7mpiSn2tfnwOEc-2" target="6ftEPY7mpiSn2tfnwOEc-16">
          <mxGeometry relative="1" as="geometry" />
        </mxCell>
        <mxCell id="6ftEPY7mpiSn2tfnwOEc-2" value="JabRefFrame" style="swimlane;fontStyle=0;childLayout=stackLayout;horizontal=1;startSize=26;fillColor=none;horizontalStack=0;resizeParent=1;resizeParentMax=0;resizeLast=0;collapsible=1;marginBottom=0;" vertex="1" parent="1">
          <mxGeometry x="1330" y="603" width="140" height="52" as="geometry" />
        </mxCell>
        <mxCell id="6ftEPY7mpiSn2tfnwOEc-3" style="edgeStyle=orthogonalEdgeStyle;rounded=0;orthogonalLoop=1;jettySize=auto;html=1;exitX=0;exitY=0.5;exitDx=0;exitDy=0;entryX=1.002;entryY=0.058;entryDx=0;entryDy=0;entryPerimeter=0;" edge="1" parent="1" source="6ftEPY7mpiSn2tfnwOEc-4" target="6ftEPY7mpiSn2tfnwOEc-6">
          <mxGeometry relative="1" as="geometry">
            <mxPoint x="901" y="340" as="targetPoint" />
          </mxGeometry>
        </mxCell>
        <mxCell id="6ftEPY7mpiSn2tfnwOEc-4" value="ControlHelper" style="swimlane;fontStyle=0;childLayout=stackLayout;horizontal=1;startSize=26;fillColor=none;horizontalStack=0;resizeParent=1;resizeParentMax=0;resizeLast=0;collapsible=1;marginBottom=0;" vertex="1" parent="1">
          <mxGeometry x="1330" y="260" width="140" height="52" as="geometry" />
        </mxCell>
        <mxCell id="6ftEPY7mpiSn2tfnwOEc-5" style="edgeStyle=orthogonalEdgeStyle;rounded=0;orthogonalLoop=1;jettySize=auto;html=1;exitX=0.5;exitY=0;exitDx=0;exitDy=0;" edge="1" parent="1" source="6ftEPY7mpiSn2tfnwOEc-6" target="6ftEPY7mpiSn2tfnwOEc-33">
          <mxGeometry relative="1" as="geometry" />
        </mxCell>
        <mxCell id="6ftEPY7mpiSn2tfnwOEc-6" value="FileWizardView" style="swimlane;fontStyle=1;align=center;verticalAlign=top;childLayout=stackLayout;horizontal=1;startSize=26;horizontalStack=0;resizeParent=1;resizeParentMax=0;resizeLast=0;collapsible=1;marginBottom=0;" vertex="1" parent="1">
          <mxGeometry x="650" y="330" width="260" height="216" as="geometry" />
        </mxCell>
        <mxCell id="6ftEPY7mpiSn2tfnwOEc-7" value="+ private BasePanel" style="text;strokeColor=none;fillColor=none;align=left;verticalAlign=top;spacingLeft=4;spacingRight=4;overflow=hidden;rotatable=0;points=[[0,0.5],[1,0.5]];portConstraint=eastwest;" vertex="1" parent="6ftEPY7mpiSn2tfnwOEc-6">
          <mxGeometry y="26" width="260" height="26" as="geometry" />
        </mxCell>
        <mxCell id="6ftEPY7mpiSn2tfnwOEc-8" value="+ private DialogService" style="text;strokeColor=none;fillColor=none;align=left;verticalAlign=top;spacingLeft=4;spacingRight=4;overflow=hidden;rotatable=0;points=[[0,0.5],[1,0.5]];portConstraint=eastwest;" vertex="1" parent="6ftEPY7mpiSn2tfnwOEc-6">
          <mxGeometry y="52" width="260" height="26" as="geometry" />
        </mxCell>
        <mxCell id="6ftEPY7mpiSn2tfnwOEc-9" value="+ private FileWizardViewModel" style="text;strokeColor=none;fillColor=none;align=left;verticalAlign=top;spacingLeft=4;spacingRight=4;overflow=hidden;rotatable=0;points=[[0,0.5],[1,0.5]];portConstraint=eastwest;" vertex="1" parent="6ftEPY7mpiSn2tfnwOEc-6">
          <mxGeometry y="78" width="260" height="26" as="geometry" />
        </mxCell>
        <mxCell id="6ftEPY7mpiSn2tfnwOEc-10" value="+ private File: pathName" style="text;strokeColor=none;fillColor=none;align=left;verticalAlign=top;spacingLeft=4;spacingRight=4;overflow=hidden;rotatable=0;points=[[0,0.5],[1,0.5]];portConstraint=eastwest;" vertex="1" parent="6ftEPY7mpiSn2tfnwOEc-6">
          <mxGeometry y="104" width="260" height="26" as="geometry" />
        </mxCell>
        <mxCell id="6ftEPY7mpiSn2tfnwOEc-11" value="" style="line;strokeWidth=1;fillColor=none;align=left;verticalAlign=middle;spacingTop=-1;spacingLeft=3;spacingRight=3;rotatable=0;labelPosition=right;points=[];portConstraint=eastwest;" vertex="1" parent="6ftEPY7mpiSn2tfnwOEc-6">
          <mxGeometry y="130" width="260" height="8" as="geometry" />
        </mxCell>
        <mxCell id="6ftEPY7mpiSn2tfnwOEc-12" value="+Â  @FXML initialize(): void" style="text;strokeColor=none;fillColor=none;align=left;verticalAlign=top;spacingLeft=4;spacingRight=4;overflow=hidden;rotatable=0;points=[[0,0.5],[1,0.5]];portConstraint=eastwest;" vertex="1" parent="6ftEPY7mpiSn2tfnwOEc-6">
          <mxGeometry y="138" width="260" height="26" as="geometry" />
        </mxCell>
        <mxCell id="6ftEPY7mpiSn2tfnwOEc-13" value="+ startWizard(): void" style="text;strokeColor=none;fillColor=none;align=left;verticalAlign=top;spacingLeft=4;spacingRight=4;overflow=hidden;rotatable=0;points=[[0,0.5],[1,0.5]];portConstraint=eastwest;" vertex="1" parent="6ftEPY7mpiSn2tfnwOEc-6">
          <mxGeometry y="164" width="260" height="26" as="geometry" />
        </mxCell>
        <mxCell id="6ftEPY7mpiSn2tfnwOEc-14" value="+ @FXML browseDirectory(ActionEvent): void" style="text;strokeColor=none;fillColor=none;align=left;verticalAlign=top;spacingLeft=4;spacingRight=4;overflow=hidden;rotatable=0;points=[[0,0.5],[1,0.5]];portConstraint=eastwest;" vertex="1" parent="6ftEPY7mpiSn2tfnwOEc-6">
          <mxGeometry y="190" width="260" height="26" as="geometry" />
        </mxCell>
        <mxCell id="6ftEPY7mpiSn2tfnwOEc-15" style="edgeStyle=orthogonalEdgeStyle;rounded=0;orthogonalLoop=1;jettySize=auto;html=1;exitX=0.5;exitY=0;exitDx=0;exitDy=0;" edge="1" parent="1" source="6ftEPY7mpiSn2tfnwOEc-16" target="6ftEPY7mpiSn2tfnwOEc-6">
          <mxGeometry relative="1" as="geometry" />
        </mxCell>
        <mxCell id="6ftEPY7mpiSn2tfnwOEc-16" value="FileWizard" style="swimlane;fontStyle=1;align=center;verticalAlign=top;childLayout=stackLayout;horizontal=1;startSize=26;horizontalStack=0;resizeParent=1;resizeParentMax=0;resizeLast=0;collapsible=1;marginBottom=0;" vertex="1" parent="1">
          <mxGeometry x="700" y="590" width="160" height="138" as="geometry" />
        </mxCell>
        <mxCell id="6ftEPY7mpiSn2tfnwOEc-17" value="+ private JabRefFrame" style="text;strokeColor=none;fillColor=none;align=left;verticalAlign=top;spacingLeft=4;spacingRight=4;overflow=hidden;rotatable=0;points=[[0,0.5],[1,0.5]];portConstraint=eastwest;" vertex="1" parent="6ftEPY7mpiSn2tfnwOEc-16">
          <mxGeometry y="26" width="160" height="26" as="geometry" />
        </mxCell>
        <mxCell id="6ftEPY7mpiSn2tfnwOEc-18" value="+ private DialogService" style="text;strokeColor=none;fillColor=none;align=left;verticalAlign=top;spacingLeft=4;spacingRight=4;overflow=hidden;rotatable=0;points=[[0,0.5],[1,0.5]];portConstraint=eastwest;" vertex="1" parent="6ftEPY7mpiSn2tfnwOEc-16">
          <mxGeometry y="52" width="160" height="26" as="geometry" />
        </mxCell>
        <mxCell id="6ftEPY7mpiSn2tfnwOEc-19" value="+ private StateManager" style="text;strokeColor=none;fillColor=none;align=left;verticalAlign=top;spacingLeft=4;spacingRight=4;overflow=hidden;rotatable=0;points=[[0,0.5],[1,0.5]];portConstraint=eastwest;" vertex="1" parent="6ftEPY7mpiSn2tfnwOEc-16">
          <mxGeometry y="78" width="160" height="26" as="geometry" />
        </mxCell>
        <mxCell id="6ftEPY7mpiSn2tfnwOEc-20" value="" style="line;strokeWidth=1;fillColor=none;align=left;verticalAlign=middle;spacingTop=-1;spacingLeft=3;spacingRight=3;rotatable=0;labelPosition=right;points=[];portConstraint=eastwest;" vertex="1" parent="6ftEPY7mpiSn2tfnwOEc-16">
          <mxGeometry y="104" width="160" height="8" as="geometry" />
        </mxCell>
        <mxCell id="6ftEPY7mpiSn2tfnwOEc-21" value="+ execute(): void" style="text;strokeColor=none;fillColor=none;align=left;verticalAlign=top;spacingLeft=4;spacingRight=4;overflow=hidden;rotatable=0;points=[[0,0.5],[1,0.5]];portConstraint=eastwest;" vertex="1" parent="6ftEPY7mpiSn2tfnwOEc-16">
          <mxGeometry y="112" width="160" height="26" as="geometry" />
        </mxCell>
        <mxCell id="6ftEPY7mpiSn2tfnwOEc-22" style="edgeStyle=orthogonalEdgeStyle;rounded=0;orthogonalLoop=1;jettySize=auto;html=1;exitX=0;exitY=0.5;exitDx=0;exitDy=0;entryX=0.979;entryY=0.156;entryDx=0;entryDy=0;entryPerimeter=0;" edge="1" parent="1" source="6ftEPY7mpiSn2tfnwOEc-23" target="6ftEPY7mpiSn2tfnwOEc-54">
          <mxGeometry relative="1" as="geometry" />
        </mxCell>
        <mxCell id="6ftEPY7mpiSn2tfnwOEc-23" value="FileWizardReport.fxml" style="html=1;" vertex="1" parent="1">
          <mxGeometry x="440" y="-200" width="135" height="26" as="geometry" />
        </mxCell>
        <mxCell id="6ftEPY7mpiSn2tfnwOEc-24" style="edgeStyle=orthogonalEdgeStyle;rounded=0;orthogonalLoop=1;jettySize=auto;html=1;exitX=1;exitY=0.5;exitDx=0;exitDy=0;entryX=0.003;entryY=0.083;entryDx=0;entryDy=0;entryPerimeter=0;" edge="1" parent="1" source="6ftEPY7mpiSn2tfnwOEc-25" target="6ftEPY7mpiSn2tfnwOEc-6">
          <mxGeometry relative="1" as="geometry" />
        </mxCell>
        <mxCell id="6ftEPY7mpiSn2tfnwOEc-25" value="FileWizard.fxml" style="html=1;" vertex="1" parent="1">
          <mxGeometry x="510" y="286" width="95" height="26" as="geometry" />
        </mxCell>
        <mxCell id="6ftEPY7mpiSn2tfnwOEc-26" style="edgeStyle=orthogonalEdgeStyle;rounded=0;orthogonalLoop=1;jettySize=auto;html=1;exitX=0;exitY=0.75;exitDx=0;exitDy=0;entryX=1;entryY=0.5;entryDx=0;entryDy=0;" edge="1" parent="1" source="6ftEPY7mpiSn2tfnwOEc-29" target="6ftEPY7mpiSn2tfnwOEc-18">
          <mxGeometry relative="1" as="geometry" />
        </mxCell>
        <mxCell id="6ftEPY7mpiSn2tfnwOEc-27" style="edgeStyle=orthogonalEdgeStyle;rounded=0;orthogonalLoop=1;jettySize=auto;html=1;exitX=0;exitY=0.5;exitDx=0;exitDy=0;entryX=1;entryY=0.5;entryDx=0;entryDy=0;" edge="1" parent="1" source="6ftEPY7mpiSn2tfnwOEc-29" target="6ftEPY7mpiSn2tfnwOEc-8">
          <mxGeometry relative="1" as="geometry" />
        </mxCell>
        <mxCell id="6ftEPY7mpiSn2tfnwOEc-28" style="edgeStyle=orthogonalEdgeStyle;rounded=0;orthogonalLoop=1;jettySize=auto;html=1;exitX=0;exitY=0.25;exitDx=0;exitDy=0;entryX=1;entryY=0.5;entryDx=0;entryDy=0;" edge="1" parent="1" source="6ftEPY7mpiSn2tfnwOEc-29" target="6ftEPY7mpiSn2tfnwOEc-35">
          <mxGeometry relative="1" as="geometry">
            <Array as="points">
              <mxPoint x="1030" y="423" />
              <mxPoint x="1030" y="155" />
            </Array>
          </mxGeometry>
        </mxCell>
        <mxCell id="6ftEPY7mpiSn2tfnwOEc-29" value="DialogService" style="swimlane;fontStyle=0;childLayout=stackLayout;horizontal=1;startSize=26;fillColor=none;horizontalStack=0;resizeParent=1;resizeParentMax=0;resizeLast=0;collapsible=1;marginBottom=0;" vertex="1" parent="1">
          <mxGeometry x="1110" y="407" width="140" height="62" as="geometry" />
        </mxCell>
        <mxCell id="6ftEPY7mpiSn2tfnwOEc-30" style="edgeStyle=orthogonalEdgeStyle;rounded=0;orthogonalLoop=1;jettySize=auto;html=1;exitX=0;exitY=0.5;exitDx=0;exitDy=0;entryX=1;entryY=0.104;entryDx=0;entryDy=0;entryPerimeter=0;" edge="1" parent="1" source="6ftEPY7mpiSn2tfnwOEc-31" target="6ftEPY7mpiSn2tfnwOEc-33">
          <mxGeometry relative="1" as="geometry" />
        </mxCell>
        <mxCell id="6ftEPY7mpiSn2tfnwOEc-31" value="DirectoryDialogConfiguration" style="swimlane;fontStyle=0;childLayout=stackLayout;horizontal=1;startSize=26;fillColor=none;horizontalStack=0;resizeParent=1;resizeParentMax=0;resizeLast=0;collapsible=1;marginBottom=0;" vertex="1" parent="1">
          <mxGeometry x="1315" y="80" width="170" height="52" as="geometry" />
        </mxCell>
        <mxCell id="6ftEPY7mpiSn2tfnwOEc-32" style="edgeStyle=orthogonalEdgeStyle;rounded=0;orthogonalLoop=1;jettySize=auto;html=1;exitX=0.5;exitY=0;exitDx=0;exitDy=0;entryX=0.56;entryY=-0.002;entryDx=0;entryDy=0;entryPerimeter=0;" edge="1" parent="1" source="6ftEPY7mpiSn2tfnwOEc-33" target="6ftEPY7mpiSn2tfnwOEc-46">
          <mxGeometry relative="1" as="geometry" />
        </mxCell>
        <mxCell id="6ftEPY7mpiSn2tfnwOEc-33" value="FileWizardViewModel" style="swimlane;fontStyle=1;align=center;verticalAlign=top;childLayout=stackLayout;horizontal=1;startSize=26;horizontalStack=0;resizeParent=1;resizeParentMax=0;resizeLast=0;collapsible=1;marginBottom=0;" vertex="1" parent="1">
          <mxGeometry x="647.5" y="90" width="265" height="164" as="geometry" />
        </mxCell>
        <mxCell id="6ftEPY7mpiSn2tfnwOEc-34" value="+ private final StringProperty: directory" style="text;strokeColor=none;fillColor=none;align=left;verticalAlign=top;spacingLeft=4;spacingRight=4;overflow=hidden;rotatable=0;points=[[0,0.5],[1,0.5]];portConstraint=eastwest;" vertex="1" parent="6ftEPY7mpiSn2tfnwOEc-33">
          <mxGeometry y="26" width="265" height="26" as="geometry" />
        </mxCell>
        <mxCell id="6ftEPY7mpiSn2tfnwOEc-35" value="+ private final DialogServie" style="text;strokeColor=none;fillColor=none;align=left;verticalAlign=top;spacingLeft=4;spacingRight=4;overflow=hidden;rotatable=0;points=[[0,0.5],[1,0.5]];portConstraint=eastwest;" vertex="1" parent="6ftEPY7mpiSn2tfnwOEc-33">
          <mxGeometry y="52" width="265" height="26" as="geometry" />
        </mxCell>
        <mxCell id="6ftEPY7mpiSn2tfnwOEc-36" value="+ private final DirectoryDialogConfiguration" style="text;strokeColor=none;fillColor=none;align=left;verticalAlign=top;spacingLeft=4;spacingRight=4;overflow=hidden;rotatable=0;points=[[0,0.5],[1,0.5]];portConstraint=eastwest;" vertex="1" parent="6ftEPY7mpiSn2tfnwOEc-33">
          <mxGeometry y="78" width="265" height="26" as="geometry" />
        </mxCell>
        <mxCell id="6ftEPY7mpiSn2tfnwOEc-37" value="" style="line;strokeWidth=1;fillColor=none;align=left;verticalAlign=middle;spacingTop=-1;spacingLeft=3;spacingRight=3;rotatable=0;labelPosition=right;points=[];portConstraint=eastwest;" vertex="1" parent="6ftEPY7mpiSn2tfnwOEc-33">
          <mxGeometry y="104" width="265" height="8" as="geometry" />
        </mxCell>
        <mxCell id="6ftEPY7mpiSn2tfnwOEc-38" value="+ browseFileDirectory(): void" style="text;strokeColor=none;fillColor=none;align=left;verticalAlign=top;spacingLeft=4;spacingRight=4;overflow=hidden;rotatable=0;points=[[0,0.5],[1,0.5]];portConstraint=eastwest;" vertex="1" parent="6ftEPY7mpiSn2tfnwOEc-33">
          <mxGeometry y="112" width="265" height="26" as="geometry" />
        </mxCell>
        <mxCell id="6ftEPY7mpiSn2tfnwOEc-39" value="+ getDirectoryProperty(): StringPropertyÂ " style="text;strokeColor=none;fillColor=none;align=left;verticalAlign=top;spacingLeft=4;spacingRight=4;overflow=hidden;rotatable=0;points=[[0,0.5],[1,0.5]];portConstraint=eastwest;" vertex="1" parent="6ftEPY7mpiSn2tfnwOEc-33">
          <mxGeometry y="138" width="265" height="26" as="geometry" />
        </mxCell>
        <mxCell id="6ftEPY7mpiSn2tfnwOEc-40" style="edgeStyle=orthogonalEdgeStyle;rounded=0;orthogonalLoop=1;jettySize=auto;html=1;exitX=0;exitY=0.25;exitDx=0;exitDy=0;" edge="1" parent="1" source="6ftEPY7mpiSn2tfnwOEc-41">
          <mxGeometry relative="1" as="geometry">
            <mxPoint x="908" y="350" as="targetPoint" />
            <Array as="points">
              <mxPoint x="908" y="350" />
            </Array>
          </mxGeometry>
        </mxCell>
        <mxCell id="6ftEPY7mpiSn2tfnwOEc-41" value="BaseDialog&lt;void&gt;" style="swimlane;fontStyle=0;childLayout=stackLayout;horizontal=1;startSize=26;fillColor=none;horizontalStack=0;resizeParent=1;resizeParentMax=0;resizeLast=0;collapsible=1;marginBottom=0;" vertex="1" parent="1">
          <mxGeometry x="1330" y="337" width="140" height="52" as="geometry" />
        </mxCell>
        <mxCell id="6ftEPY7mpiSn2tfnwOEc-42" style="edgeStyle=orthogonalEdgeStyle;rounded=0;orthogonalLoop=1;jettySize=auto;html=1;exitX=0;exitY=0.5;exitDx=0;exitDy=0;entryX=1.003;entryY=0.071;entryDx=0;entryDy=0;entryPerimeter=0;" edge="1" parent="1" source="6ftEPY7mpiSn2tfnwOEc-43" target="6ftEPY7mpiSn2tfnwOEc-16">
          <mxGeometry relative="1" as="geometry" />
        </mxCell>
        <mxCell id="6ftEPY7mpiSn2tfnwOEc-43" value="SimpleCommand" style="swimlane;fontStyle=0;childLayout=stackLayout;horizontal=1;startSize=26;fillColor=none;horizontalStack=0;resizeParent=1;resizeParentMax=0;resizeLast=0;collapsible=1;marginBottom=0;" vertex="1" parent="1">
          <mxGeometry x="1330" y="538" width="140" height="52" as="geometry" />
        </mxCell>
        <mxCell id="6ftEPY7mpiSn2tfnwOEc-44" style="edgeStyle=orthogonalEdgeStyle;rounded=0;orthogonalLoop=1;jettySize=auto;html=1;exitX=0.5;exitY=0;exitDx=0;exitDy=0;" edge="1" parent="1" source="6ftEPY7mpiSn2tfnwOEc-46" target="6ftEPY7mpiSn2tfnwOEc-54">
          <mxGeometry relative="1" as="geometry" />
        </mxCell>
        <mxCell id="6ftEPY7mpiSn2tfnwOEc-45" style="edgeStyle=orthogonalEdgeStyle;rounded=0;orthogonalLoop=1;jettySize=auto;html=1;exitX=0;exitY=0.75;exitDx=0;exitDy=0;entryX=0.5;entryY=0;entryDx=0;entryDy=0;" edge="1" parent="1" source="6ftEPY7mpiSn2tfnwOEc-46" target="6ftEPY7mpiSn2tfnwOEc-58">
          <mxGeometry relative="1" as="geometry" />
        </mxCell>
        <mxCell id="6ftEPY7mpiSn2tfnwOEc-46" value="FileWizardManager" style="swimlane;fontStyle=1;align=center;verticalAlign=top;childLayout=stackLayout;horizontal=1;startSize=26;horizontalStack=0;resizeParent=1;resizeParentMax=0;resizeLast=0;collapsible=1;marginBottom=0;" vertex="1" parent="1">
          <mxGeometry x="70" y="11" width="230" height="190" as="geometry" />
        </mxCell>
        <mxCell id="6ftEPY7mpiSn2tfnwOEc-47" value="+ private File: pathName" style="text;strokeColor=none;fillColor=none;align=left;verticalAlign=top;spacingLeft=4;spacingRight=4;overflow=hidden;rotatable=0;points=[[0,0.5],[1,0.5]];portConstraint=eastwest;" vertex="1" parent="6ftEPY7mpiSn2tfnwOEc-46">
          <mxGeometry y="26" width="230" height="26" as="geometry" />
        </mxCell>
        <mxCell id="6ftEPY7mpiSn2tfnwOEc-48" value="+ private final StringProperty: directory" style="text;strokeColor=none;fillColor=none;align=left;verticalAlign=top;spacingLeft=4;spacingRight=4;overflow=hidden;rotatable=0;points=[[0,0.5],[1,0.5]];portConstraint=eastwest;" vertex="1" parent="6ftEPY7mpiSn2tfnwOEc-46">
          <mxGeometry y="52" width="230" height="26" as="geometry" />
        </mxCell>
        <mxCell id="6ftEPY7mpiSn2tfnwOEc-49" value="+ Bib mit allen EintrÃ¤gen" style="text;strokeColor=#FF3819;fillColor=none;align=left;verticalAlign=top;spacingLeft=4;spacingRight=4;overflow=hidden;rotatable=0;points=[[0,0.5],[1,0.5]];portConstraint=eastwest;" vertex="1" parent="6ftEPY7mpiSn2tfnwOEc-46">
          <mxGeometry y="78" width="230" height="26" as="geometry" />
        </mxCell>
        <mxCell id="6ftEPY7mpiSn2tfnwOEc-50" value="..." style="text;strokeColor=none;fillColor=none;align=left;verticalAlign=top;spacingLeft=4;spacingRight=4;overflow=hidden;rotatable=0;points=[[0,0.5],[1,0.5]];portConstraint=eastwest;" vertex="1" parent="6ftEPY7mpiSn2tfnwOEc-46">
          <mxGeometry y="104" width="230" height="26" as="geometry" />
        </mxCell>
        <mxCell id="6ftEPY7mpiSn2tfnwOEc-51" value="" style="line;strokeWidth=1;fillColor=none;align=left;verticalAlign=middle;spacingTop=-1;spacingLeft=3;spacingRight=3;rotatable=0;labelPosition=right;points=[];portConstraint=eastwest;" vertex="1" parent="6ftEPY7mpiSn2tfnwOEc-46">
          <mxGeometry y="130" width="230" height="8" as="geometry" />
        </mxCell>
        <mxCell id="6ftEPY7mpiSn2tfnwOEc-52" value="+ iterateTroughAllEntries(directory): void" style="text;strokeColor=none;fillColor=none;align=left;verticalAlign=top;spacingLeft=4;spacingRight=4;overflow=hidden;rotatable=0;points=[[0,0.5],[1,0.5]];portConstraint=eastwest;" vertex="1" parent="6ftEPY7mpiSn2tfnwOEc-46">
          <mxGeometry y="138" width="230" height="26" as="geometry" />
        </mxCell>
        <mxCell id="6ftEPY7mpiSn2tfnwOEc-53" value="..." style="text;strokeColor=none;fillColor=none;align=left;verticalAlign=top;spacingLeft=4;spacingRight=4;overflow=hidden;rotatable=0;points=[[0,0.5],[1,0.5]];portConstraint=eastwest;" vertex="1" parent="6ftEPY7mpiSn2tfnwOEc-46">
          <mxGeometry y="164" width="230" height="26" as="geometry" />
        </mxCell>
        <mxCell id="6ftEPY7mpiSn2tfnwOEc-54" value="FileWizardReport" style="swimlane;fontStyle=1;align=center;verticalAlign=top;childLayout=stackLayout;horizontal=1;startSize=26;horizontalStack=0;resizeParent=1;resizeParentMax=0;resizeLast=0;collapsible=1;marginBottom=0;" vertex="1" parent="1">
          <mxGeometry x="210" y="-200" width="160" height="86" as="geometry" />
        </mxCell>
        <mxCell id="6ftEPY7mpiSn2tfnwOEc-55" value="+ field: type" style="text;strokeColor=none;fillColor=none;align=left;verticalAlign=top;spacingLeft=4;spacingRight=4;overflow=hidden;rotatable=0;points=[[0,0.5],[1,0.5]];portConstraint=eastwest;" vertex="1" parent="6ftEPY7mpiSn2tfnwOEc-54">
          <mxGeometry y="26" width="160" height="26" as="geometry" />
        </mxCell>
        <mxCell id="6ftEPY7mpiSn2tfnwOEc-56" value="" style="line;strokeWidth=1;fillColor=none;align=left;verticalAlign=middle;spacingTop=-1;spacingLeft=3;spacingRight=3;rotatable=0;labelPosition=right;points=[];portConstraint=eastwest;" vertex="1" parent="6ftEPY7mpiSn2tfnwOEc-54">
          <mxGeometry y="52" width="160" height="8" as="geometry" />
        </mxCell>
        <mxCell id="6ftEPY7mpiSn2tfnwOEc-57" value="+ method(type): type" style="text;strokeColor=none;fillColor=none;align=left;verticalAlign=top;spacingLeft=4;spacingRight=4;overflow=hidden;rotatable=0;points=[[0,0.5],[1,0.5]];portConstraint=eastwest;" vertex="1" parent="6ftEPY7mpiSn2tfnwOEc-54">
          <mxGeometry y="60" width="160" height="26" as="geometry" />
        </mxCell>
        <mxCell id="6ftEPY7mpiSn2tfnwOEc-58" value="FileLinkChecker" style="swimlane;fontStyle=1;align=center;verticalAlign=top;childLayout=stackLayout;horizontal=1;startSize=26;horizontalStack=0;resizeParent=1;resizeParentMax=0;resizeLast=0;collapsible=1;marginBottom=0;" vertex="1" parent="1">
          <mxGeometry x="-380" y="217" width="260" height="164" as="geometry" />
        </mxCell>
        <mxCell id="6ftEPY7mpiSn2tfnwOEc-59" value="+ private File: pathName" style="text;strokeColor=none;fillColor=none;align=left;verticalAlign=top;spacingLeft=4;spacingRight=4;overflow=hidden;rotatable=0;points=[[0,0.5],[1,0.5]];portConstraint=eastwest;" vertex="1" parent="6ftEPY7mpiSn2tfnwOEc-58">
          <mxGeometry y="26" width="260" height="26" as="geometry" />
        </mxCell>
        <mxCell id="6ftEPY7mpiSn2tfnwOEc-60" value="+ private final StringProperty: directory" style="text;strokeColor=none;fillColor=none;align=left;verticalAlign=top;spacingLeft=4;spacingRight=4;overflow=hidden;rotatable=0;points=[[0,0.5],[1,0.5]];portConstraint=eastwest;" vertex="1" parent="6ftEPY7mpiSn2tfnwOEc-58">
          <mxGeometry y="52" width="260" height="26" as="geometry" />
        </mxCell>
        <mxCell id="6ftEPY7mpiSn2tfnwOEc-61" value="" style="line;strokeWidth=1;fillColor=none;align=left;verticalAlign=middle;spacingTop=-1;spacingLeft=3;spacingRight=3;rotatable=0;labelPosition=right;points=[];portConstraint=eastwest;" vertex="1" parent="6ftEPY7mpiSn2tfnwOEc-58">
          <mxGeometry y="78" width="260" height="8" as="geometry" />
        </mxCell>
        <mxCell id="6ftEPY7mpiSn2tfnwOEc-62" value="+ pathExistsInList(File pathName): boolean" style="text;strokeColor=none;fillColor=none;align=left;verticalAlign=top;spacingLeft=4;spacingRight=4;overflow=hidden;rotatable=0;points=[[0,0.5],[1,0.5]];portConstraint=eastwest;" vertex="1" parent="6ftEPY7mpiSn2tfnwOEc-58">
          <mxGeometry y="86" width="260" height="26" as="geometry" />
        </mxCell>
        <mxCell id="6ftEPY7mpiSn2tfnwOEc-63" value="+ pdfExistsInDirectory(directory):boolean" style="text;strokeColor=none;fillColor=none;align=left;verticalAlign=top;spacingLeft=4;spacingRight=4;overflow=hidden;rotatable=0;points=[[0,0.5],[1,0.5]];portConstraint=eastwest;" vertex="1" parent="6ftEPY7mpiSn2tfnwOEc-58">
          <mxGeometry y="112" width="260" height="26" as="geometry" />
        </mxCell>
        <mxCell id="6ftEPY7mpiSn2tfnwOEc-64" value="..." style="text;strokeColor=none;fillColor=none;align=left;verticalAlign=top;spacingLeft=4;spacingRight=4;overflow=hidden;rotatable=0;points=[[0,0.5],[1,0.5]];portConstraint=eastwest;" vertex="1" parent="6ftEPY7mpiSn2tfnwOEc-58">
          <mxGeometry y="138" width="260" height="26" as="geometry" />
        </mxCell>
        <mxCell id="6ftEPY7mpiSn2tfnwOEc-65" value="RememberMe" style="swimlane;fontStyle=1;align=center;verticalAlign=top;childLayout=stackLayout;horizontal=1;startSize=26;horizontalStack=0;resizeParent=1;resizeParentMax=0;resizeLast=0;collapsible=1;marginBottom=0;strokeColor=#FF0000;" vertex="1" parent="1">
          <mxGeometry x="-380" y="585" width="160" height="86" as="geometry" />
        </mxCell>
        <mxCell id="6ftEPY7mpiSn2tfnwOEc-66" value="+ ListenerÂ " style="text;strokeColor=none;fillColor=none;align=left;verticalAlign=top;spacingLeft=4;spacingRight=4;overflow=hidden;rotatable=0;points=[[0,0.5],[1,0.5]];portConstraint=eastwest;" vertex="1" parent="6ftEPY7mpiSn2tfnwOEc-65">
          <mxGeometry y="26" width="160" height="26" as="geometry" />
        </mxCell>
        <mxCell id="6ftEPY7mpiSn2tfnwOEc-67" value="" style="line;strokeWidth=1;fillColor=none;align=left;verticalAlign=middle;spacingTop=-1;spacingLeft=3;spacingRight=3;rotatable=0;labelPosition=right;points=[];portConstraint=eastwest;" vertex="1" parent="6ftEPY7mpiSn2tfnwOEc-65">
          <mxGeometry y="52" width="160" height="8" as="geometry" />
        </mxCell>
        <mxCell id="6ftEPY7mpiSn2tfnwOEc-68" value="+ activateListerenerForNextTime(): void" style="text;strokeColor=none;fillColor=none;align=left;verticalAlign=top;spacingLeft=4;spacingRight=4;overflow=hidden;rotatable=0;points=[[0,0.5],[1,0.5]];portConstraint=eastwest;" vertex="1" parent="6ftEPY7mpiSn2tfnwOEc-65">
          <mxGeometry y="60" width="160" height="26" as="geometry" />
        </mxCell>
        <mxCell id="6ftEPY7mpiSn2tfnwOEc-69" value="SafePdfLocal" style="swimlane;fontStyle=1;align=center;verticalAlign=top;childLayout=stackLayout;horizontal=1;startSize=26;horizontalStack=0;resizeParent=1;resizeParentMax=0;resizeLast=0;collapsible=1;marginBottom=0;strokeColor=#000000;" vertex="1" parent="1">
          <mxGeometry x="-380" y="480" width="160" height="86" as="geometry" />
        </mxCell>
        <mxCell id="6ftEPY7mpiSn2tfnwOEc-70" value="+ field: type" style="text;strokeColor=none;fillColor=none;align=left;verticalAlign=top;spacingLeft=4;spacingRight=4;overflow=hidden;rotatable=0;points=[[0,0.5],[1,0.5]];portConstraint=eastwest;" vertex="1" parent="6ftEPY7mpiSn2tfnwOEc-69">
          <mxGeometry y="26" width="160" height="26" as="geometry" />
        </mxCell>
        <mxCell id="6ftEPY7mpiSn2tfnwOEc-71" value="" style="line;strokeWidth=1;fillColor=none;align=left;verticalAlign=middle;spacingTop=-1;spacingLeft=3;spacingRight=3;rotatable=0;labelPosition=right;points=[];portConstraint=eastwest;" vertex="1" parent="6ftEPY7mpiSn2tfnwOEc-69">
          <mxGeometry y="52" width="160" height="8" as="geometry" />
        </mxCell>
        <mxCell id="6ftEPY7mpiSn2tfnwOEc-72" value="+ method(type): type" style="text;strokeColor=none;fillColor=none;align=left;verticalAlign=top;spacingLeft=4;spacingRight=4;overflow=hidden;rotatable=0;points=[[0,0.5],[1,0.5]];portConstraint=eastwest;" vertex="1" parent="6ftEPY7mpiSn2tfnwOEc-69">
          <mxGeometry y="60" width="160" height="26" as="geometry" />
        </mxCell>
        <mxCell id="6ftEPY7mpiSn2tfnwOEc-73" value="FileWizardDownloader" style="swimlane;fontStyle=1;align=center;verticalAlign=top;childLayout=stackLayout;horizontal=1;startSize=26;horizontalStack=0;resizeParent=1;resizeParentMax=0;resizeLast=0;collapsible=1;marginBottom=0;strokeColor=#000000;" vertex="1" parent="1">
          <mxGeometry x="-80" y="407" width="320" height="294" as="geometry" />
        </mxCell>
        <mxCell id="6ftEPY7mpiSn2tfnwOEc-74" value="+ DialogService" style="text;strokeColor=none;fillColor=none;align=left;verticalAlign=top;spacingLeft=4;spacingRight=4;overflow=hidden;rotatable=0;points=[[0,0.5],[1,0.5]];portConstraint=eastwest;" vertex="1" parent="6ftEPY7mpiSn2tfnwOEc-73">
          <mxGeometry y="26" width="320" height="26" as="geometry" />
        </mxCell>
        <mxCell id="6ftEPY7mpiSn2tfnwOEc-75" value="+ PreferencesService" style="text;strokeColor=none;fillColor=none;align=left;verticalAlign=top;spacingLeft=4;spacingRight=4;overflow=hidden;rotatable=0;points=[[0,0.5],[1,0.5]];portConstraint=eastwest;" vertex="1" parent="6ftEPY7mpiSn2tfnwOEc-73">
          <mxGeometry y="52" width="320" height="26" as="geometry" />
        </mxCell>
        <mxCell id="6ftEPY7mpiSn2tfnwOEc-76" value="+ BibDatabaseContext" style="text;strokeColor=none;fillColor=none;align=left;verticalAlign=top;spacingLeft=4;spacingRight=4;overflow=hidden;rotatable=0;points=[[0,0.5],[1,0.5]];portConstraint=eastwest;" vertex="1" parent="6ftEPY7mpiSn2tfnwOEc-73">
          <mxGeometry y="78" width="320" height="26" as="geometry" />
        </mxCell>
        <mxCell id="6ftEPY7mpiSn2tfnwOEc-77" value="+ BibEntry" style="text;strokeColor=none;fillColor=none;align=left;verticalAlign=top;spacingLeft=4;spacingRight=4;overflow=hidden;rotatable=0;points=[[0,0.5],[1,0.5]];portConstraint=eastwest;" vertex="1" parent="6ftEPY7mpiSn2tfnwOEc-73">
          <mxGeometry y="104" width="320" height="26" as="geometry" />
        </mxCell>
        <mxCell id="6ftEPY7mpiSn2tfnwOEc-78" value="+ Path: targetDirectory" style="text;strokeColor=none;fillColor=none;align=left;verticalAlign=top;spacingLeft=4;spacingRight=4;overflow=hidden;rotatable=0;points=[[0,0.5],[1,0.5]];portConstraint=eastwest;" vertex="1" parent="6ftEPY7mpiSn2tfnwOEc-73">
          <mxGeometry y="130" width="320" height="26" as="geometry" />
        </mxCell>
        <mxCell id="6ftEPY7mpiSn2tfnwOEc-79" value="" style="line;strokeWidth=1;fillColor=none;align=left;verticalAlign=middle;spacingTop=-1;spacingLeft=3;spacingRight=3;rotatable=0;labelPosition=right;points=[];portConstraint=eastwest;" vertex="1" parent="6ftEPY7mpiSn2tfnwOEc-73">
          <mxGeometry y="156" width="320" height="8" as="geometry" />
        </mxCell>
        <mxCell id="6ftEPY7mpiSn2tfnwOEc-80" value="+ fileWIzardDownloaderFromUrl(all fields): void" style="text;strokeColor=none;fillColor=none;align=left;verticalAlign=top;spacingLeft=4;spacingRight=4;overflow=hidden;rotatable=0;points=[[0,0.5],[1,0.5]];portConstraint=eastwest;" vertex="1" parent="6ftEPY7mpiSn2tfnwOEc-73">
          <mxGeometry y="164" width="320" height="26" as="geometry" />
        </mxCell>
        <mxCell id="6ftEPY7mpiSn2tfnwOEc-81" value="+ getDoiFromTitel(): DOI (?)" style="text;strokeColor=none;fillColor=none;align=left;verticalAlign=top;spacingLeft=4;spacingRight=4;overflow=hidden;rotatable=0;points=[[0,0.5],[1,0.5]];portConstraint=eastwest;" vertex="1" parent="6ftEPY7mpiSn2tfnwOEc-73">
          <mxGeometry y="190" width="320" height="26" as="geometry" />
        </mxCell>
        <mxCell id="6ftEPY7mpiSn2tfnwOEc-82" value="+ searchUrl(...): URL" style="text;strokeColor=none;fillColor=none;align=left;verticalAlign=top;spacingLeft=4;spacingRight=4;overflow=hidden;rotatable=0;points=[[0,0.5],[1,0.5]];portConstraint=eastwest;" vertex="1" parent="6ftEPY7mpiSn2tfnwOEc-73">
          <mxGeometry y="216" width="320" height="26" as="geometry" />
        </mxCell>
        <mxCell id="6ftEPY7mpiSn2tfnwOEc-83" value="..." style="text;strokeColor=none;fillColor=none;align=left;verticalAlign=top;spacingLeft=4;spacingRight=4;overflow=hidden;rotatable=0;points=[[0,0.5],[1,0.5]];portConstraint=eastwest;" vertex="1" parent="6ftEPY7mpiSn2tfnwOEc-73">
          <mxGeometry y="242" width="320" height="26" as="geometry" />
        </mxCell>
        <mxCell id="6ftEPY7mpiSn2tfnwOEc-84" value="(file autolinked after download)" style="text;strokeColor=none;fillColor=none;align=left;verticalAlign=top;spacingLeft=4;spacingRight=4;overflow=hidden;rotatable=0;points=[[0,0.5],[1,0.5]];portConstraint=eastwest;" vertex="1" parent="6ftEPY7mpiSn2tfnwOEc-73">
          <mxGeometry y="268" width="320" height="26" as="geometry" />
        </mxCell>
      </root>
    </mxGraphModel>
  </diagram>
</mxfile>
